<?xml version="1.0" encoding="iso-8859-1"?>
<!-- Generator: Adobe Illustrator 17.1.0, SVG Export Plug-In . SVG Version: 6.00 Build 0)  -->
<!DOCTYPE svg PUBLIC "-//W3C//DTD SVG 1.0//EN" "http://www.w3.org/TR/2001/REC-SVG-20010904/DTD/svg10.dtd">
<svg version="1.0" xmlns="http://www.w3.org/2000/svg" xmlns:xlink="http://www.w3.org/1999/xlink" x="0px" y="0px" width="110px"
	 height="110px" viewBox="0 0 110 110" style="enable-background:new 0 0 110 110;" xml:space="preserve">
<g id="Artboard" style="display:none;">
	<rect x="-59.5" y="-176.5" style="display:inline;fill:#808080;stroke:#000000;stroke-miterlimit:10;" width="1355" height="467"/>
</g>
<g id="R-Multicolor" style="display:none;">
	<circle style="display:inline;fill:#FABC3D;" cx="55" cy="55" r="55"/>
	<g style="display:inline;">
		<path style="fill:#5B5C5F;" d="M75,55V23H35v32l-8,16h56L75,55z M39,55V27h32v28H39z"/>
		<g>
			<rect x="27" y="71" style="fill:#3E3E3F;" width="56" height="16"/>
		</g>
		<g>
			<rect x="39" y="27" style="fill:#3E3E3F;" width="32" height="28"/>
		</g>
		<g>
			<polygon style="fill:#FA5655;" points="45.05,35.858 50.025,30.883 59.975,30.883 64.95,35.858 			"/>
		</g>
		<g>
			<polygon style="fill:#5B5C5F;" points="27,71 27,87 36.024,87 52.024,71 			"/>
		</g>
		<g>
			<polygon style="fill:#DF2C2C;" points="64.95,35.858 59.975,43.321 50.025,43.321 45.05,35.858 			"/>
		</g>
		<g>
			<polygon style="fill:#F79392;" points="50.025,30.883 55,35.858 59.975,30.883 			"/>
		</g>
		<g>
			<polygon style="fill:#FA5655;" points="59.975,43.321 55,35.858 50.025,43.321 			"/>
		</g>
		<g>
			<path style="fill:#FFFFFF;" d="M73.081,27.184c-2.863,0.403-4.495,2.035-4.897,4.897c-0.017,0.119-0.181,0.119-0.198,0
				c-0.402-2.862-2.035-4.495-4.897-4.897c-0.119-0.017-0.119-0.181,0-0.198c2.863-0.403,4.495-2.035,4.897-4.897
				c0.017-0.119,0.181-0.119,0.198,0c0.402,2.862,2.035,4.495,4.897,4.897C73.201,27.003,73.201,27.167,73.081,27.184z"/>
		</g>
		<g>
			<path style="fill:#FFFFFF;" d="M41.081,43.184c-2.863,0.403-4.495,2.035-4.897,4.897c-0.017,0.119-0.181,0.119-0.198,0
				c-0.402-2.862-2.035-4.495-4.897-4.897c-0.119-0.017-0.119-0.181,0-0.198c2.863-0.403,4.495-2.035,4.897-4.897
				c0.017-0.119,0.181-0.119,0.198,0c0.402,2.862,2.035,4.495,4.897,4.897C41.201,43.003,41.201,43.167,41.081,43.184z"/>
		</g>
		<g>
			<polygon style="fill:#9E9FA0;" points="27,71 52.024,71 68.024,55 35,55 			"/>
		</g>
		<g>
			<path style="fill:#FFFFFF;" d="M71,55c0,0-3-4-16-4s-16,4-16,4l-6,14h44L71,55z"/>
		</g>
		<g>
			<path style="fill:#FACB1B;" d="M60,45.933v-2.613H50v2.613c-4.124,1.899-7,6.057-7,10.887c0,1.782,0.382,3.499,1.136,5.102
				l2.715-1.276C46.286,59.446,46,58.159,46,56.821c0-4.962,4.037-9,9-9s9,4.038,9,9c0,1.361-0.296,2.667-0.878,3.883L65.827,62
				C66.605,60.376,67,58.634,67,56.821C67,51.991,64.124,47.833,60,45.933z"/>
		</g>
		<g>
			<path style="fill:#FBE158;" d="M50,43.321v2.613c-4.124,1.899-7,6.057-7,10.887c0,0.21,0.023,0.416,0.034,0.624l3.415-3.415
				c0.89-2.72,3.041-4.87,5.76-5.76l4.948-4.948H50z"/>
		</g>
	</g>
</g>
<g id="Multicolor">
	<g>
		<path style="fill:#5B5C5F;" d="M75,55V23H35v32l-8,16h56L75,55z M39,55V27h32v28H39z"/>
		<g>
			<rect x="27" y="71" style="fill:#3E3E3F;" width="56" height="16"/>
		</g>
		<g>
			<rect x="39" y="27" style="fill:#3E3E3F;" width="32" height="28"/>
		</g>
		<g>
			<polygon style="fill:#FA5655;" points="45.05,35.858 50.025,30.883 59.975,30.883 64.95,35.858 			"/>
		</g>
		<g>
			<polygon style="fill:#5B5C5F;" points="27,71 27,87 36.024,87 52.024,71 			"/>
		</g>
		<g>
			<polygon style="fill:#DF2C2C;" points="64.95,35.858 59.975,43.321 50.025,43.321 45.05,35.858 			"/>
		</g>
		<g>
			<polygon style="fill:#F79392;" points="50.025,30.883 55,35.858 59.975,30.883 			"/>
		</g>
		<g>
			<polygon style="fill:#FA5655;" points="59.975,43.321 55,35.858 50.025,43.321 			"/>
		</g>
		<g>
			<path style="fill:#FFFFFF;" d="M73.081,27.184c-2.863,0.403-4.495,2.035-4.897,4.897c-0.017,0.119-0.181,0.119-0.198,0
				c-0.402-2.862-2.035-4.495-4.897-4.897c-0.119-0.017-0.119-0.181,0-0.198c2.863-0.403,4.495-2.035,4.897-4.897
				c0.017-0.119,0.181-0.119,0.198,0c0.402,2.862,2.035,4.495,4.897,4.897C73.201,27.003,73.201,27.167,73.081,27.184z"/>
		</g>
		<g>
			<path style="fill:#FFFFFF;" d="M41.081,43.184c-2.863,0.403-4.495,2.035-4.897,4.897c-0.017,0.119-0.181,0.119-0.198,0
				c-0.402-2.862-2.035-4.495-4.897-4.897c-0.119-0.017-0.119-0.181,0-0.198c2.863-0.403,4.495-2.035,4.897-4.897
				c0.017-0.119,0.181-0.119,0.198,0c0.402,2.862,2.035,4.495,4.897,4.897C41.201,43.003,41.201,43.167,41.081,43.184z"/>
		</g>
		<g>
			<polygon style="fill:#9E9FA0;" points="27,71 52.024,71 68.024,55 35,55 			"/>
		</g>
		<g>
			<path style="fill:#FFFFFF;" d="M71,55c0,0-3-4-16-4s-16,4-16,4l-6,14h44L71,55z"/>
		</g>
		<g>
			<path style="fill:#FACB1B;" d="M60,45.933v-2.613H50v2.613c-4.124,1.899-7,6.057-7,10.887c0,1.782,0.382,3.499,1.136,5.102
				l2.715-1.276C46.286,59.446,46,58.159,46,56.821c0-4.962,4.037-9,9-9s9,4.038,9,9c0,1.361-0.296,2.667-0.878,3.883L65.827,62
				C66.605,60.376,67,58.634,67,56.821C67,51.991,64.124,47.833,60,45.933z"/>
		</g>
		<g>
			<path style="fill:#FBE158;" d="M50,43.321v2.613c-4.124,1.899-7,6.057-7,10.887c0,0.21,0.023,0.416,0.034,0.624l3.415-3.415
				c0.89-2.72,3.041-4.87,5.76-5.76l4.948-4.948H50z"/>
		</g>
	</g>
</g>
<g id="Blue" style="display:none;">
	<g style="display:inline;">
		<path style="fill:#009FC7;" d="M75.023,55V23h-40v32l-8,16h56L75.023,55z M39.023,55V27h32v28H39.023z"/>
		<g>
			<rect x="27.023" y="71" style="fill:#0081A1;" width="56" height="16"/>
		</g>
		<g>
			<rect x="39.023" y="27" style="fill:#0C333D;" width="32" height="28"/>
		</g>
		<g>
			<polygon style="fill:#FFFFFF;" points="45.074,35.858 50.048,30.883 59.998,30.883 64.974,35.858 			"/>
		</g>
		<g>
			<polygon style="fill:#009FC7;" points="27.023,71 27.023,87 36.048,87 52.048,71 			"/>
		</g>
		<g>
			<polygon style="fill:#E1F5FA;" points="64.974,35.858 59.998,43.321 50.048,43.321 45.074,35.858 			"/>
		</g>
		<g>
			<polygon style="fill:#BBE7F2;" points="50.048,30.883 55.023,35.858 59.998,30.883 			"/>
		</g>
		<g>
			<polygon style="fill:#BBE7F2;" points="59.998,43.321 55.023,35.858 50.048,43.321 			"/>
		</g>
		<g>
			<path style="fill:#FFFFFF;" d="M73.105,27.184c-2.863,0.403-4.495,2.035-4.897,4.897c-0.017,0.119-0.181,0.119-0.197,0
				c-0.403-2.862-2.035-4.495-4.897-4.897c-0.119-0.017-0.119-0.181,0-0.197c2.862-0.403,4.495-2.035,4.897-4.897
				c0.017-0.119,0.181-0.119,0.197,0c0.403,2.862,2.035,4.495,4.897,4.897C73.224,27.003,73.224,27.168,73.105,27.184z"/>
		</g>
		<g>
			<path style="fill:#FFFFFF;" d="M41.105,43.184c-2.863,0.403-4.495,2.035-4.897,4.897c-0.017,0.119-0.181,0.119-0.197,0
				c-0.403-2.862-2.035-4.495-4.897-4.897c-0.119-0.017-0.119-0.181,0-0.197c2.862-0.403,4.495-2.035,4.897-4.897
				c0.017-0.119,0.181-0.119,0.197,0c0.403,2.862,2.035,4.495,4.897,4.897C41.224,43.003,41.224,43.167,41.105,43.184z"/>
		</g>
		<g>
			<polygon style="fill:#00B7E5;" points="27.023,71 52.048,71 68.048,55 35.023,55 			"/>
		</g>
		<g>
			<path style="fill:#FFFFFF;" d="M71.023,55c0,0-3-4-16-4s-16,4-16,4l-6,14h44L71.023,55z"/>
		</g>
		<g>
			<path style="fill:#53BAD4;" d="M60.023,45.934v-2.613h-10v2.613c-4.125,1.899-7,6.057-7,10.887c0,1.782,0.382,3.499,1.136,5.102
				l2.715-1.276c-0.564-1.201-0.851-2.488-0.851-3.826c0-4.962,4.037-9,9-9s9,4.038,9,9c0,1.361-0.296,2.667-0.878,3.883L65.851,62
				c0.778-1.624,1.173-3.366,1.173-5.179C67.023,51.991,64.147,47.833,60.023,45.934z"/>
		</g>
		<g>
			<path style="fill:#81D2EB;" d="M50.023,43.321v2.613c-4.125,1.899-7,6.057-7,10.887c0,0.21,0.023,0.416,0.034,0.624l3.415-3.415
				c0.89-2.72,3.041-4.87,5.76-5.76l4.949-4.949H50.023z"/>
		</g>
	</g>
</g>
<g id="R-Blue" style="display:none;">
	<circle style="display:inline;fill:#81D2EB;" cx="55" cy="55" r="55"/>
	<g style="display:inline;">
		<path style="fill:#009FC7;" d="M75,55V23H35v32l-8,16h56L75,55z M39,55V27h32v28H39z"/>
		<g>
			<rect x="27" y="71" style="fill:#0081A1;" width="56" height="16"/>
		</g>
		<g>
			<rect x="39" y="27" style="fill:#0C333D;" width="32" height="28"/>
		</g>
		<g>
			<polygon style="fill:#FFFFFF;" points="45.05,35.858 50.025,30.883 59.975,30.883 64.95,35.858 			"/>
		</g>
		<g>
			<polygon style="fill:#009FC7;" points="27,71 27,87 36.024,87 52.024,71 			"/>
		</g>
		<g>
			<polygon style="fill:#E1F5FA;" points="64.95,35.858 59.975,43.321 50.025,43.321 45.05,35.858 			"/>
		</g>
		<g>
			<polygon style="fill:#BBE7F2;" points="50.025,30.883 55,35.858 59.975,30.883 			"/>
		</g>
		<g>
			<polygon style="fill:#BBE7F2;" points="59.975,43.321 55,35.858 50.025,43.321 			"/>
		</g>
		<g>
			<path style="fill:#FFFFFF;" d="M73.081,27.184c-2.863,0.403-4.495,2.035-4.897,4.897c-0.017,0.119-0.181,0.119-0.197,0
				c-0.403-2.862-2.035-4.495-4.897-4.897c-0.119-0.017-0.119-0.181,0-0.197c2.862-0.403,4.495-2.035,4.897-4.897
				c0.017-0.119,0.181-0.119,0.197,0c0.403,2.862,2.035,4.495,4.897,4.897C73.201,27.003,73.201,27.167,73.081,27.184z"/>
		</g>
		<g>
			<path style="fill:#FFFFFF;" d="M41.082,43.184c-2.863,0.403-4.495,2.035-4.897,4.897c-0.017,0.119-0.181,0.119-0.197,0
				c-0.403-2.862-2.035-4.495-4.897-4.897c-0.119-0.017-0.119-0.181,0-0.197c2.862-0.403,4.495-2.035,4.897-4.897
				c0.017-0.119,0.181-0.119,0.197,0c0.403,2.862,2.035,4.495,4.897,4.897C41.201,43.003,41.201,43.167,41.082,43.184z"/>
		</g>
		<g>
			<polygon style="fill:#00B7E5;" points="27,71 52.024,71 68.024,55 35,55 			"/>
		</g>
		<g>
			<path style="fill:#FFFFFF;" d="M71,55c0,0-3-4-16-4s-16,4-16,4l-6,14h44L71,55z"/>
		</g>
		<g>
			<path style="fill:#53BAD4;" d="M60,45.934v-2.613H50v2.613c-4.125,1.899-7,6.057-7,10.887c0,1.782,0.382,3.499,1.136,5.102
				l2.715-1.276C46.286,59.446,46,58.159,46,56.821c0-4.962,4.037-9,9-9s9,4.038,9,9c0,1.361-0.296,2.667-0.878,3.883L65.827,62
				C66.605,60.376,67,58.634,67,56.821C67,51.991,64.123,47.833,60,45.934z"/>
		</g>
		<g>
			<path style="fill:#81D2EB;" d="M50,43.321v2.613c-4.125,1.899-7,6.057-7,10.887c0,0.21,0.023,0.416,0.034,0.624l3.415-3.415
				c0.89-2.72,3.041-4.87,5.76-5.76l4.949-4.949H50z"/>
		</g>
	</g>
</g>
<g id="Green" style="display:none;">
	<g style="display:inline;">
		<path style="fill:#00B8A5;" d="M75,55V23H35v32l-8,16h56L75,55z M39,55V27h32v28H39z"/>
		<g>
			<rect x="27" y="71" style="fill:#009687;" width="56" height="16"/>
		</g>
		<g>
			<rect x="39" y="27" style="fill:#0A3631;" width="32" height="28"/>
		</g>
		<g>
			<polygon style="fill:#FFFFFF;" points="45.051,35.858 50.025,30.883 59.975,30.883 64.95,35.858 			"/>
		</g>
		<g>
			<polygon style="fill:#00B8A5;" points="27,71 27,87 36.025,87 52.025,71 			"/>
		</g>
		<g>
			<polygon style="fill:#D7FCF9;" points="64.95,35.858 59.975,43.321 50.025,43.321 45.051,35.858 			"/>
		</g>
		<g>
			<polygon style="fill:#AAF0E9;" points="50.025,30.883 55,35.858 59.975,30.883 			"/>
		</g>
		<g>
			<polygon style="fill:#AAF0E9;" points="59.975,43.321 55,35.858 50.025,43.321 			"/>
		</g>
		<g>
			<path style="fill:#FFFFFF;" d="M73.082,27.184c-2.863,0.403-4.495,2.035-4.897,4.897c-0.017,0.119-0.181,0.119-0.197,0
				c-0.403-2.862-2.035-4.495-4.897-4.897c-0.119-0.017-0.119-0.181,0-0.197c2.862-0.403,4.495-2.035,4.897-4.897
				c0.017-0.119,0.181-0.119,0.197,0c0.403,2.862,2.035,4.495,4.897,4.897C73.201,27.003,73.201,27.168,73.082,27.184z"/>
		</g>
		<g>
			<path style="fill:#FFFFFF;" d="M41.082,43.184c-2.863,0.403-4.495,2.035-4.897,4.897c-0.017,0.119-0.181,0.119-0.197,0
				c-0.403-2.862-2.035-4.495-4.897-4.897c-0.119-0.017-0.119-0.181,0-0.197c2.862-0.403,4.495-2.035,4.897-4.897
				c0.017-0.119,0.181-0.119,0.197,0c0.403,2.862,2.035,4.495,4.897,4.897C41.201,43.003,41.201,43.168,41.082,43.184z"/>
		</g>
		<g>
			<polygon style="fill:#00D6C1;" points="27,71 52.025,71 68.025,55 35,55 			"/>
		</g>
		<g>
			<path style="fill:#FFFFFF;" d="M71,55c0,0-3-4-16-4s-16,4-16,4l-6,14h44L71,55z"/>
		</g>
		<g>
			<path style="fill:#55C9BE;" d="M60,45.934v-2.613H50v2.613c-4.125,1.899-7,6.057-7,10.887c0,1.782,0.382,3.499,1.136,5.102
				l2.715-1.276C46.286,59.446,46,58.159,46,56.821c0-4.962,4.037-9,9-9s9,4.038,9,9c0,1.361-0.296,2.667-0.878,3.883L65.827,62
				C66.606,60.377,67,58.634,67,56.821C67,51.991,64.124,47.833,60,45.934z"/>
		</g>
		<g>
			<path style="fill:#77E0C4;" d="M50,43.321v2.613c-4.125,1.899-7,6.057-7,10.887c0,0.21,0.023,0.416,0.034,0.624l3.415-3.414
				c0.89-2.72,3.041-4.87,5.76-5.76l4.949-4.949H50z"/>
		</g>
	</g>
</g>
<g id="R-Green" style="display:none;">
	<circle style="display:inline;fill:#77E0C4;" cx="55" cy="55" r="55"/>
	<g style="display:inline;">
		<path style="fill:#00B8A5;" d="M75,55V23H35v32l-8,16h56L75,55z M39,55V27h32v28H39z"/>
		<g>
			<rect x="27" y="71" style="fill:#009687;" width="56" height="16"/>
		</g>
		<g>
			<rect x="39" y="27" style="fill:#0A3631;" width="32" height="28"/>
		</g>
		<g>
			<polygon style="fill:#FFFFFF;" points="45.05,35.858 50.025,30.883 59.975,30.883 64.95,35.858 			"/>
		</g>
		<g>
			<polygon style="fill:#00B8A5;" points="27,71 27,87 36.024,87 52.024,71 			"/>
		</g>
		<g>
			<polygon style="fill:#D7FCF9;" points="64.95,35.858 59.975,43.321 50.025,43.321 45.05,35.858 			"/>
		</g>
		<g>
			<polygon style="fill:#AAF0E9;" points="50.025,30.883 55,35.858 59.975,30.883 			"/>
		</g>
		<g>
			<polygon style="fill:#AAF0E9;" points="59.975,43.321 55,35.858 50.025,43.321 			"/>
		</g>
		<g>
			<path style="fill:#FFFFFF;" d="M73.081,27.184c-2.863,0.403-4.495,2.035-4.897,4.897c-0.017,0.119-0.181,0.119-0.197,0
				c-0.403-2.862-2.035-4.495-4.897-4.897c-0.119-0.017-0.119-0.181,0-0.197c2.862-0.403,4.495-2.035,4.897-4.897
				c0.017-0.119,0.181-0.119,0.197,0c0.403,2.862,2.035,4.495,4.897,4.897C73.201,27.003,73.201,27.168,73.081,27.184z"/>
		</g>
		<g>
			<path style="fill:#FFFFFF;" d="M41.081,43.184c-2.863,0.403-4.495,2.035-4.897,4.897c-0.017,0.119-0.181,0.119-0.197,0
				c-0.403-2.862-2.035-4.495-4.897-4.897c-0.119-0.017-0.119-0.181,0-0.197c2.862-0.403,4.495-2.035,4.897-4.897
				c0.017-0.119,0.181-0.119,0.197,0c0.403,2.862,2.035,4.495,4.897,4.897C41.201,43.003,41.201,43.167,41.081,43.184z"/>
		</g>
		<g>
			<polygon style="fill:#00D6C1;" points="27,71 52.024,71 68.024,55 35,55 			"/>
		</g>
		<g>
			<path style="fill:#FFFFFF;" d="M71,55c0,0-3-4-16-4s-16,4-16,4l-6,14h44L71,55z"/>
		</g>
		<g>
			<path style="fill:#55C9BE;" d="M60,45.934v-2.613H50v2.613c-4.125,1.899-7,6.057-7,10.887c0,1.782,0.382,3.499,1.136,5.102
				l2.715-1.276C46.286,59.446,46,58.159,46,56.821c0-4.962,4.037-9,9-9s9,4.038,9,9c0,1.361-0.296,2.667-0.878,3.883L65.827,62
				C66.605,60.376,67,58.634,67,56.821C67,51.991,64.123,47.833,60,45.934z"/>
		</g>
		<g>
			<path style="fill:#77E0C4;" d="M50,43.321v2.613c-4.125,1.899-7,6.057-7,10.887c0,0.21,0.023,0.416,0.034,0.624l3.415-3.415
				c0.89-2.72,3.041-4.87,5.76-5.76l4.949-4.949H50z"/>
		</g>
	</g>
</g>
<g id="Red" style="display:none;">
	<g style="display:inline;">
		<path style="fill:#E54B44;" d="M75,54.957v-32H35v32l-8,16h56L75,54.957z M39,54.957v-28h32v28H39z"/>
		<g>
			<rect x="27" y="70.957" style="fill:#C23023;" width="56" height="16"/>
		</g>
		<g>
			<rect x="39" y="26.957" style="fill:#4A1410;" width="32" height="28"/>
		</g>
		<g>
			<polygon style="fill:#FFFFFF;" points="45.051,35.815 50.025,30.84 59.975,30.84 64.95,35.815 			"/>
		</g>
		<g>
			<polygon style="fill:#E54B44;" points="27,70.957 27,86.957 36.025,86.957 52.025,70.957 			"/>
		</g>
		<g>
			<polygon style="fill:#FFEFED;" points="64.95,35.815 59.975,43.278 50.025,43.278 45.051,35.815 			"/>
		</g>
		<g>
			<polygon style="fill:#FFD7D4;" points="50.025,30.84 55,35.815 59.975,30.84 			"/>
		</g>
		<g>
			<polygon style="fill:#FFD7D4;" points="59.975,43.278 55,35.815 50.025,43.278 			"/>
		</g>
		<g>
			<path style="fill:#FFFFFF;" d="M73.082,27.141c-2.863,0.403-4.495,2.035-4.897,4.897c-0.017,0.119-0.181,0.119-0.197,0
				c-0.403-2.862-2.035-4.495-4.897-4.897c-0.119-0.017-0.119-0.181,0-0.197c2.862-0.403,4.495-2.035,4.897-4.897
				c0.017-0.119,0.181-0.119,0.197,0c0.403,2.862,2.035,4.495,4.897,4.897C73.201,26.96,73.201,27.124,73.082,27.141z"/>
		</g>
		<g>
			<path style="fill:#FFFFFF;" d="M41.082,43.141c-2.863,0.403-4.495,2.035-4.897,4.897c-0.017,0.119-0.181,0.119-0.197,0
				c-0.403-2.862-2.035-4.495-4.897-4.897c-0.119-0.017-0.119-0.181,0-0.197c2.862-0.403,4.495-2.035,4.897-4.897
				c0.017-0.119,0.181-0.119,0.197,0c0.403,2.862,2.035,4.495,4.897,4.897C41.201,42.96,41.201,43.124,41.082,43.141z"/>
		</g>
		<g>
			<polygon style="fill:#FF6C5E;" points="27,70.957 52.025,70.957 68.025,54.957 35,54.957 			"/>
		</g>
		<g>
			<path style="fill:#FFFFFF;" d="M71,54.957c0,0-3-4-16-4s-16,4-16,4l-6,14h44L71,54.957z"/>
		</g>
		<g>
			<path style="fill:#E8A099;" d="M60,45.891v-2.613H50v2.613c-4.125,1.899-7,6.057-7,10.887c0,1.782,0.382,3.499,1.136,5.102
				l2.715-1.276C46.286,59.403,46,58.116,46,56.778c0-4.962,4.037-9,9-9s9,4.038,9,9c0,1.361-0.296,2.667-0.878,3.883l2.705,1.296
				C66.606,60.333,67,58.591,67,56.778C67,51.948,64.124,47.79,60,45.891z"/>
		</g>
		<g>
			<path style="fill:#FABBAF;" d="M50,43.278v2.613c-4.125,1.899-7,6.057-7,10.887c0,0.21,0.023,0.415,0.034,0.623l3.415-3.414
				c0.89-2.72,3.041-4.87,5.76-5.76l4.949-4.949H50z"/>
		</g>
	</g>
</g>
<g id="R-Red" style="display:none;">
	<circle style="display:inline;fill:#FABBAF;" cx="55" cy="55" r="55"/>
	<g style="display:inline;">
		<path style="fill:#E54B44;" d="M75,55V23H35v32l-8,16h56L75,55z M39,55V27h32v28H39z"/>
		<g>
			<rect x="27" y="71" style="fill:#C23023;" width="56" height="16"/>
		</g>
		<g>
			<rect x="39" y="27" style="fill:#4A1410;" width="32" height="28"/>
		</g>
		<g>
			<polygon style="fill:#FFFFFF;" points="45.05,35.858 50.025,30.883 59.975,30.883 64.95,35.858 			"/>
		</g>
		<g>
			<polygon style="fill:#E54B44;" points="27,71 27,87 36.024,87 52.024,71 			"/>
		</g>
		<g>
			<polygon style="fill:#FFEFED;" points="64.95,35.858 59.975,43.321 50.025,43.321 45.05,35.858 			"/>
		</g>
		<g>
			<polygon style="fill:#FFD7D4;" points="50.025,30.883 55,35.858 59.975,30.883 			"/>
		</g>
		<g>
			<polygon style="fill:#FFD7D4;" points="59.975,43.321 55,35.858 50.025,43.321 			"/>
		</g>
		<g>
			<path style="fill:#FFFFFF;" d="M73.081,27.184c-2.863,0.403-4.495,2.035-4.897,4.897c-0.017,0.119-0.181,0.119-0.197,0
				c-0.403-2.862-2.035-4.495-4.897-4.897c-0.119-0.017-0.119-0.181,0-0.197c2.862-0.403,4.495-2.035,4.897-4.897
				c0.017-0.119,0.181-0.119,0.197,0c0.403,2.862,2.035,4.495,4.897,4.897C73.201,27.003,73.201,27.168,73.081,27.184z"/>
		</g>
		<g>
			<path style="fill:#FFFFFF;" d="M41.082,43.184c-2.863,0.403-4.495,2.035-4.897,4.897c-0.017,0.119-0.181,0.119-0.197,0
				c-0.403-2.862-2.035-4.495-4.897-4.897c-0.119-0.017-0.119-0.181,0-0.197c2.862-0.403,4.495-2.035,4.897-4.897
				c0.017-0.119,0.181-0.119,0.197,0c0.403,2.862,2.035,4.495,4.897,4.897C41.201,43.003,41.201,43.168,41.082,43.184z"/>
		</g>
		<g>
			<polygon style="fill:#FF6C5E;" points="27,71 52.024,71 68.024,55 35,55 			"/>
		</g>
		<g>
			<path style="fill:#FFFFFF;" d="M71,55c0,0-3-4-16-4s-16,4-16,4l-6,14h44L71,55z"/>
		</g>
		<g>
			<path style="fill:#E8A099;" d="M60,45.934v-2.613H50v2.613c-4.125,1.899-7,6.057-7,10.887c0,1.782,0.382,3.499,1.136,5.102
				l2.715-1.276C46.286,59.446,46,58.159,46,56.821c0-4.962,4.037-9,9-9s9,4.038,9,9c0,1.361-0.296,2.667-0.878,3.883L65.827,62
				C66.605,60.376,67,58.634,67,56.821C67,51.991,64.123,47.833,60,45.934z"/>
		</g>
		<g>
			<path style="fill:#FABBAF;" d="M50,43.321v2.613c-4.125,1.899-7,6.057-7,10.887c0,0.21,0.023,0.416,0.034,0.624l3.415-3.415
				c0.89-2.72,3.041-4.87,5.76-5.76l4.949-4.949H50z"/>
		</g>
	</g>
</g>
<g id="Yellow" style="display:none;">
	<g style="display:inline;">
		<path style="fill:#FA9200;" d="M75,55V23H35v32l-8,16h56L75,55z M39,55V27h32v28H39z"/>
		<g>
			<rect x="27" y="71" style="fill:#E07000;" width="56" height="16"/>
		</g>
		<g>
			<rect x="39" y="27" style="fill:#3D320C;" width="32" height="28"/>
		</g>
		<g>
			<polygon style="fill:#FFFFFF;" points="45.051,35.858 50.025,30.883 59.975,30.883 64.95,35.858 			"/>
		</g>
		<g>
			<polygon style="fill:#FA9200;" points="27,71 27,87 36.025,87 52.025,71 			"/>
		</g>
		<g>
			<polygon style="fill:#FFF5D9;" points="64.95,35.858 59.975,43.321 50.025,43.321 45.051,35.858 			"/>
		</g>
		<g>
			<polygon style="fill:#FFE9A1;" points="50.025,30.883 55,35.858 59.975,30.883 			"/>
		</g>
		<g>
			<polygon style="fill:#FFE9A1;" points="59.975,43.321 55,35.858 50.025,43.321 			"/>
		</g>
		<g>
			<path style="fill:#FFFFFF;" d="M73.082,27.184c-2.863,0.403-4.495,2.035-4.897,4.897c-0.017,0.119-0.181,0.119-0.197,0
				c-0.403-2.862-2.035-4.495-4.897-4.897c-0.119-0.017-0.119-0.181,0-0.197c2.862-0.403,4.495-2.035,4.897-4.897
				c0.017-0.119,0.181-0.119,0.197,0c0.403,2.862,2.035,4.495,4.897,4.897C73.201,27.003,73.201,27.168,73.082,27.184z"/>
		</g>
		<g>
			<path style="fill:#FFFFFF;" d="M41.082,43.184c-2.863,0.403-4.495,2.035-4.897,4.897c-0.017,0.119-0.181,0.119-0.197,0
				c-0.403-2.862-2.035-4.495-4.897-4.897c-0.119-0.017-0.119-0.181,0-0.197c2.862-0.403,4.495-2.035,4.897-4.897
				c0.017-0.119,0.181-0.119,0.197,0c0.403,2.862,2.035,4.495,4.897,4.897C41.201,43.003,41.201,43.168,41.082,43.184z"/>
		</g>
		<g>
			<polygon style="fill:#FFAA00;" points="27,71 52.025,71 68.025,55 35,55 			"/>
		</g>
		<g>
			<path style="fill:#FFFFFF;" d="M71,55c0,0-3-4-16-4s-16,4-16,4l-6,14h44L71,55z"/>
		</g>
		<g>
			<path style="fill:#F5C43D;" d="M60,45.934v-2.613H50v2.613c-4.125,1.899-7,6.057-7,10.887c0,1.782,0.382,3.499,1.136,5.102
				l2.715-1.276C46.286,59.446,46,58.159,46,56.821c0-4.962,4.037-9,9-9s9,4.038,9,9c0,1.361-0.296,2.667-0.878,3.883L65.827,62
				C66.606,60.377,67,58.634,67,56.821C67,51.991,64.124,47.833,60,45.934z"/>
		</g>
		<g>
			<path style="fill:#FFD75E;" d="M50,43.321v2.613c-4.125,1.899-7,6.057-7,10.887c0,0.21,0.023,0.416,0.034,0.624l3.415-3.414
				c0.89-2.72,3.041-4.87,5.76-5.76l4.949-4.949H50z"/>
		</g>
	</g>
</g>
<g id="R-Yellow" style="display:none;">
	<circle style="display:inline;fill:#FFD75E;" cx="55" cy="55" r="55"/>
	<g style="display:inline;">
		<path style="fill:#FA9200;" d="M75,55V23H35v32l-8,16h56L75,55z M39,55V27h32v28H39z"/>
		<g>
			<rect x="27" y="71" style="fill:#E07000;" width="56" height="16"/>
		</g>
		<g>
			<rect x="39" y="27" style="fill:#3D320C;" width="32" height="28"/>
		</g>
		<g>
			<polygon style="fill:#FFFFFF;" points="45.05,35.858 50.025,30.883 59.975,30.883 64.95,35.858 			"/>
		</g>
		<g>
			<polygon style="fill:#FA9200;" points="27,71 27,87 36.024,87 52.024,71 			"/>
		</g>
		<g>
			<polygon style="fill:#FFF5D9;" points="64.95,35.858 59.975,43.321 50.025,43.321 45.05,35.858 			"/>
		</g>
		<g>
			<polygon style="fill:#FFE9A1;" points="50.025,30.883 55,35.858 59.975,30.883 			"/>
		</g>
		<g>
			<polygon style="fill:#FFE9A1;" points="59.975,43.321 55,35.858 50.025,43.321 			"/>
		</g>
		<g>
			<path style="fill:#FFFFFF;" d="M73.081,27.184c-2.863,0.403-4.495,2.035-4.897,4.897c-0.017,0.119-0.181,0.119-0.197,0
				c-0.403-2.862-2.035-4.495-4.897-4.897c-0.119-0.017-0.119-0.181,0-0.197c2.862-0.403,4.495-2.035,4.897-4.897
				c0.017-0.119,0.181-0.119,0.197,0c0.403,2.862,2.035,4.495,4.897,4.897C73.201,27.003,73.201,27.167,73.081,27.184z"/>
		</g>
		<g>
			<path style="fill:#FFFFFF;" d="M41.082,43.184c-2.863,0.403-4.495,2.035-4.897,4.897c-0.017,0.119-0.181,0.119-0.197,0
				c-0.403-2.862-2.035-4.495-4.897-4.897c-0.119-0.017-0.119-0.181,0-0.197c2.862-0.403,4.495-2.035,4.897-4.897
				c0.017-0.119,0.181-0.119,0.197,0c0.403,2.862,2.035,4.495,4.897,4.897C41.201,43.003,41.201,43.167,41.082,43.184z"/>
		</g>
		<g>
			<polygon style="fill:#FFAA00;" points="27,71 52.024,71 68.024,55 35,55 			"/>
		</g>
		<g>
			<path style="fill:#FFFFFF;" d="M71,55c0,0-3-4-16-4s-16,4-16,4l-6,14h44L71,55z"/>
		</g>
		<g>
			<path style="fill:#F5C43D;" d="M60,45.934v-2.613H50v2.613c-4.125,1.899-7,6.057-7,10.887c0,1.782,0.382,3.499,1.136,5.102
				l2.715-1.276C46.286,59.446,46,58.159,46,56.821c0-4.962,4.037-9,9-9s9,4.038,9,9c0,1.361-0.296,2.667-0.878,3.883L65.827,62
				C66.605,60.376,67,58.634,67,56.821C67,51.991,64.123,47.833,60,45.934z"/>
		</g>
		<g>
			<path style="fill:#FFD75E;" d="M50,43.321v2.613c-4.125,1.899-7,6.057-7,10.887c0,0.21,0.023,0.416,0.034,0.623l3.415-3.414
				c0.89-2.72,3.041-4.87,5.76-5.76l4.949-4.949H50z"/>
		</g>
	</g>
</g>
</svg>
