<?xml version="1.0" encoding="iso-8859-1"?>
<!-- Generator: Adobe Illustrator 17.1.0, SVG Export Plug-In . SVG Version: 6.00 Build 0)  -->
<!DOCTYPE svg PUBLIC "-//W3C//DTD SVG 1.0//EN" "http://www.w3.org/TR/2001/REC-SVG-20010904/DTD/svg10.dtd">
<svg version="1.0" xmlns="http://www.w3.org/2000/svg" xmlns:xlink="http://www.w3.org/1999/xlink" x="0px" y="0px" width="110px"
	 height="110px" viewBox="0 0 110 110" style="enable-background:new 0 0 110 110;" xml:space="preserve">
<g id="Artboard" style="display:none;">
	
		<rect x="-179.5" y="-185.5" style="display:inline;fill:#808080;stroke:#000000;stroke-miterlimit:10;" width="1342" height="483"/>
</g>
<g id="R-Multicolor" style="display:none;">
	<circle style="display:inline;fill:#E04F5F;" cx="55" cy="55" r="55"/>
	<g style="display:inline;">
		<g>
			<path style="fill:#F0F1F1;" d="M75.164,47.319C80.73,49.695,87,45.625,87,39.5c0-6.674-7.339-10.706-12.964-7.224
				C70.7,26.803,63.441,23,55,23s-15.7,3.803-19.036,9.276C30.335,28.791,23,32.83,23,39.5c0,6.128,6.274,10.193,11.836,7.819
				c2.466,4.571,8.833,4.954,11.848,0.755c1.698,3.81,2.894,8.649,2.579,9.685c-0.878-0.762-2.01-1.24-3.264-1.24
				c-3.57,0-6.041,3.675-4.567,6.982C32.827,64.183,27,65.494,27,67c0,3.603,21.341,3.129,20.994,4.129
				c-3.661,10.623-9.04,12.076-7.884,14.683C40.432,86.534,41.147,87,41.938,87H55h13.062c0.79,0,1.506-0.466,1.828-1.188
				c1.176-2.648-4.18-3.935-7.884-14.683C61.659,70.129,83,70.603,83,67c0-1.506-5.827-2.817-14.433-3.499
				c1.474-3.306-0.996-6.982-4.567-6.982c-1.254,0-2.386,0.478-3.264,1.24c-0.304-1.002,0.82-5.738,2.579-9.685
				C66.324,52.264,72.693,51.898,75.164,47.319z"/>
		</g>
		<g>
			<path style="fill:#FFFFFF;" d="M35.964,32.276C30.335,28.791,23,32.83,23,39.5c0,6.128,6.273,10.193,11.836,7.819
				c2.466,4.571,8.833,4.954,11.848,0.755c1.698,3.81,2.894,8.649,2.579,9.685c-0.878-0.762-2.01-1.24-3.264-1.24
				c-3.57,0-6.041,3.675-4.567,6.982C32.827,64.183,27,65.494,27,67c0,3.603,21.341,3.129,20.994,4.129
				c-3.661,10.623-9.04,12.076-7.884,14.683C40.432,86.534,41.147,87,41.938,87H55V23C46.559,23,39.3,26.803,35.964,32.276z"/>
		</g>
	</g>
</g>
<g id="Multicolor">
	<g>
		<g>
			<path style="fill:#F0F1F1;" d="M75.164,47.319C80.73,49.695,87,45.625,87,39.5c0-6.674-7.339-10.706-12.964-7.224
				C70.7,26.803,63.441,23,55,23s-15.7,3.803-19.036,9.276C30.335,28.791,23,32.83,23,39.5c0,6.128,6.274,10.193,11.836,7.819
				c2.466,4.571,8.833,4.954,11.848,0.755c1.698,3.81,2.894,8.649,2.579,9.685c-0.878-0.762-2.01-1.24-3.264-1.24
				c-3.57,0-6.041,3.675-4.567,6.982C32.827,64.183,27,65.494,27,67c0,3.603,21.341,3.129,20.994,4.129
				c-3.661,10.623-9.04,12.076-7.884,14.683C40.432,86.534,41.147,87,41.938,87H55h13.062c0.79,0,1.506-0.466,1.828-1.188
				c1.176-2.648-4.18-3.935-7.884-14.683C61.659,70.129,83,70.603,83,67c0-1.506-5.827-2.817-14.433-3.499
				c1.474-3.306-0.996-6.982-4.567-6.982c-1.254,0-2.386,0.478-3.264,1.24c-0.304-1.002,0.82-5.738,2.579-9.685
				C66.324,52.264,72.693,51.898,75.164,47.319z"/>
		</g>
		<g>
			<path style="fill:#FFFFFF;" d="M35.964,32.276C30.335,28.791,23,32.83,23,39.5c0,6.128,6.273,10.193,11.836,7.819
				c2.466,4.571,8.833,4.954,11.848,0.755c1.698,3.81,2.894,8.649,2.579,9.685c-0.878-0.762-2.01-1.24-3.264-1.24
				c-3.57,0-6.041,3.675-4.567,6.982C32.827,64.183,27,65.494,27,67c0,3.603,21.341,3.129,20.994,4.129
				c-3.661,10.623-9.04,12.076-7.884,14.683C40.432,86.534,41.147,87,41.938,87H55V23C46.559,23,39.3,26.803,35.964,32.276z"/>
		</g>
	</g>
</g>
<g id="Blue" style="display:none;">
	<g style="display:inline;">
		<g>
			<path style="fill:#E1F5FA;" d="M75.164,47.32C80.73,49.696,87,45.625,87,39.5c0-6.674-7.339-10.706-12.964-7.224
				C70.699,26.804,63.441,23,55,23s-15.699,3.804-19.036,9.276C30.335,28.791,23,32.83,23,39.5c0,6.129,6.273,10.193,11.836,7.819
				c2.467,4.571,8.834,4.953,11.849,0.755c1.698,3.81,2.893,8.648,2.579,9.685c-0.878-0.762-2.01-1.239-3.264-1.239
				c-3.57,0-6.041,3.675-4.566,6.981C32.827,64.184,27,65.494,27,67c0,3.602,21.342,3.129,20.994,4.129
				c-3.661,10.623-9.04,12.077-7.884,14.683C40.432,86.534,41.147,87,41.938,87H55h13.062c0.79,0,1.506-0.466,1.828-1.189
				c1.176-2.647-4.181-3.934-7.885-14.683C61.658,70.129,83,70.603,83,67c0-1.506-5.827-2.816-14.434-3.499
				C70.041,60.195,67.57,56.52,64,56.52c-1.254,0-2.386,0.478-3.264,1.239c-0.305-1.002,0.82-5.738,2.579-9.685
				C66.324,52.265,72.693,51.898,75.164,47.32z"/>
		</g>
		<g>
			<path style="fill:#FFFFFF;" d="M35.964,32.277C30.335,28.791,23,32.829,23,39.5c0,6.128,6.273,10.193,11.836,7.819
				c2.467,4.57,8.834,4.953,11.849,0.755c1.698,3.81,2.893,8.648,2.579,9.685c-0.878-0.762-2.01-1.239-3.264-1.239
				c-3.57,0-6.041,3.675-4.566,6.981C32.827,64.184,27,65.494,27,67c0,3.602,21.342,3.129,20.994,4.129
				c-3.661,10.623-9.04,12.077-7.884,14.683C40.432,86.534,41.147,87,41.938,87H55V23C46.559,23,39.301,26.804,35.964,32.277z"/>
		</g>
	</g>
</g>
<g id="R-Blue" style="display:none;">
	<circle style="display:inline;fill:#81D2EB;" cx="55" cy="55" r="55"/>
	<g style="display:inline;">
		<g>
			<path style="fill:#E1F5FA;" d="M75.164,47.319C80.73,49.695,87,45.625,87,39.5c0-6.674-7.339-10.706-12.964-7.224
				C70.699,26.804,63.441,23,55,23s-15.699,3.804-19.036,9.276C30.335,28.791,23,32.83,23,39.5c0,6.129,6.273,10.193,11.836,7.819
				c2.467,4.571,8.834,4.953,11.849,0.755c1.698,3.81,2.893,8.648,2.579,9.685c-0.878-0.762-2.01-1.239-3.264-1.239
				c-3.57,0-6.041,3.675-4.566,6.981C32.827,64.184,27,65.494,27,67c0,3.603,21.342,3.129,20.994,4.129
				c-3.661,10.623-9.04,12.077-7.884,14.683C40.432,86.534,41.147,87,41.938,87H55h13.062c0.79,0,1.506-0.466,1.828-1.188
				c1.176-2.647-4.181-3.935-7.885-14.683C61.658,70.129,83,70.603,83,67c0-1.506-5.827-2.816-14.434-3.499
				C70.041,60.194,67.57,56.52,64,56.52c-1.254,0-2.386,0.478-3.264,1.239c-0.305-1.002,0.82-5.738,2.579-9.685
				C66.324,52.265,72.693,51.897,75.164,47.319z"/>
		</g>
		<g>
			<path style="fill:#FFFFFF;" d="M35.964,32.276C30.335,28.791,23,32.829,23,39.5c0,6.128,6.273,10.193,11.836,7.819
				c2.467,4.57,8.834,4.953,11.849,0.755c1.698,3.81,2.893,8.648,2.579,9.685c-0.878-0.762-2.01-1.239-3.264-1.239
				c-3.57,0-6.041,3.675-4.566,6.981C32.827,64.184,27,65.494,27,67c0,3.603,21.342,3.129,20.994,4.129
				c-3.661,10.623-9.04,12.077-7.884,14.683C40.432,86.534,41.147,87,41.938,87H55V23C46.559,23,39.301,26.804,35.964,32.276z"/>
		</g>
	</g>
</g>
<g id="Green" style="display:none;">
	<g style="display:inline;">
		<g>
			<path style="fill:#D7FCF9;" d="M75.164,47.32C80.731,49.696,87,45.625,87,39.5c0-6.674-7.339-10.706-12.964-7.224
				C70.699,26.804,63.442,23,55,23s-15.699,3.804-19.036,9.276C30.335,28.791,23,32.83,23,39.5c0,6.129,6.273,10.193,11.836,7.819
				c2.467,4.571,8.834,4.953,11.849,0.755c1.698,3.81,2.894,8.648,2.579,9.685c-0.878-0.762-2.01-1.239-3.264-1.239
				c-3.57,0-6.041,3.675-4.566,6.981C32.827,64.184,27,65.494,27,67c0,3.602,21.342,3.129,20.994,4.129
				c-3.661,10.623-9.04,12.077-7.884,14.683C40.432,86.534,41.148,87,41.938,87H55h13.063c0.79,0,1.506-0.466,1.828-1.189
				c1.176-2.647-4.181-3.934-7.885-14.683C61.658,70.129,83,70.603,83,67c0-1.506-5.827-2.816-14.434-3.499
				c1.475-3.307-0.996-6.981-4.566-6.981c-1.254,0-2.386,0.478-3.264,1.239c-0.305-1.002,0.82-5.738,2.579-9.685
				C66.324,52.265,72.694,51.898,75.164,47.32z"/>
		</g>
		<g>
			<path style="fill:#FFFFFF;" d="M35.964,32.277C30.335,28.791,23,32.829,23,39.5c0,6.128,6.273,10.193,11.836,7.819
				c2.467,4.57,8.834,4.953,11.849,0.755c1.698,3.81,2.894,8.648,2.579,9.685c-0.878-0.762-2.01-1.239-3.264-1.239
				c-3.57,0-6.041,3.675-4.566,6.981C32.827,64.184,27,65.494,27,67c0,3.602,21.342,3.129,20.994,4.129
				c-3.661,10.623-9.04,12.077-7.884,14.683C40.432,86.534,41.148,87,41.938,87H55V23C46.559,23,39.301,26.804,35.964,32.277z"/>
		</g>
	</g>
</g>
<g id="R-Green" style="display:none;">
	<circle style="display:inline;fill:#77E0C4;" cx="55" cy="55" r="55"/>
	<g style="display:inline;">
		<g>
			<path style="fill:#D7FCF9;" d="M75.164,47.319C80.73,49.695,87,45.625,87,39.5c0-6.674-7.339-10.706-12.964-7.224
				C70.699,26.804,63.441,23,55,23s-15.699,3.804-19.036,9.276C30.335,28.791,23,32.83,23,39.5c0,6.129,6.273,10.193,11.836,7.819
				c2.467,4.571,8.834,4.953,11.849,0.755c1.698,3.81,2.894,8.648,2.579,9.685c-0.878-0.762-2.01-1.239-3.264-1.239
				c-3.57,0-6.041,3.675-4.566,6.981C32.827,64.184,27,65.494,27,67c0,3.603,21.342,3.129,20.994,4.129
				c-3.661,10.623-9.04,12.077-7.884,14.683C40.432,86.534,41.147,87,41.937,87H55h13.063c0.79,0,1.506-0.466,1.828-1.188
				c1.176-2.647-4.181-3.935-7.885-14.683C61.658,70.129,83,70.603,83,67c0-1.506-5.827-2.816-14.434-3.499
				C70.041,60.194,67.57,56.52,64,56.52c-1.254,0-2.386,0.478-3.264,1.239c-0.305-1.002,0.82-5.738,2.579-9.685
				C66.324,52.265,72.693,51.897,75.164,47.319z"/>
		</g>
		<g>
			<path style="fill:#FFFFFF;" d="M35.964,32.276C30.335,28.791,23,32.829,23,39.5c0,6.128,6.273,10.193,11.836,7.819
				c2.467,4.57,8.834,4.953,11.849,0.755c1.698,3.81,2.894,8.648,2.579,9.685c-0.878-0.762-2.01-1.239-3.264-1.239
				c-3.57,0-6.041,3.675-4.566,6.981C32.827,64.184,27,65.494,27,67c0,3.603,21.342,3.129,20.994,4.129
				c-3.661,10.623-9.04,12.077-7.884,14.683C40.432,86.534,41.147,87,41.937,87H55V23C46.559,23,39.301,26.804,35.964,32.276z"/>
		</g>
	</g>
</g>
<g id="Red" style="display:none;">
	<g style="display:inline;">
		<g>
			<path style="fill:#FFEFED;" d="M75.164,47.32C80.731,49.696,87,45.625,87,39.5c0-6.674-7.339-10.706-12.964-7.224
				C70.699,26.804,63.442,23,55,23s-15.699,3.804-19.036,9.276C30.335,28.791,23,32.83,23,39.5c0,6.129,6.273,10.193,11.836,7.819
				c2.467,4.571,8.834,4.953,11.849,0.755c1.698,3.81,2.894,8.648,2.579,9.685c-0.878-0.762-2.01-1.239-3.264-1.239
				c-3.57,0-6.041,3.675-4.566,6.981C32.827,64.184,27,65.494,27,67c0,3.602,21.342,3.129,20.994,4.129
				c-3.661,10.623-9.04,12.077-7.884,14.683C40.432,86.534,41.148,87,41.938,87H55h13.063c0.79,0,1.506-0.466,1.828-1.189
				c1.176-2.647-4.181-3.934-7.885-14.683C61.658,70.129,83,70.603,83,67c0-1.506-5.827-2.816-14.434-3.499
				c1.475-3.307-0.996-6.981-4.566-6.981c-1.254,0-2.386,0.478-3.264,1.239c-0.305-1.002,0.82-5.738,2.579-9.685
				C66.324,52.265,72.694,51.898,75.164,47.32z"/>
		</g>
		<g>
			<path style="fill:#FFFFFF;" d="M35.964,32.277C30.335,28.791,23,32.829,23,39.5c0,6.128,6.273,10.193,11.836,7.819
				c2.467,4.57,8.834,4.953,11.849,0.755c1.698,3.81,2.894,8.648,2.579,9.685c-0.878-0.762-2.01-1.239-3.264-1.239
				c-3.57,0-6.041,3.675-4.566,6.981C32.827,64.184,27,65.494,27,67c0,3.602,21.342,3.129,20.994,4.129
				c-3.661,10.623-9.04,12.077-7.884,14.683C40.432,86.534,41.148,87,41.938,87H55V23C46.559,23,39.301,26.804,35.964,32.277z"/>
		</g>
	</g>
</g>
<g id="R-Red" style="display:none;">
	<circle style="display:inline;fill:#FABBAF;" cx="55" cy="55" r="55"/>
	<g style="display:inline;">
		<g>
			<path style="fill:#FFEFED;" d="M75.164,47.319C80.73,49.695,87,45.625,87,39.5c0-6.674-7.339-10.706-12.964-7.224
				C70.699,26.804,63.441,23,55,23s-15.699,3.804-19.036,9.276C30.335,28.791,23,32.83,23,39.5c0,6.129,6.273,10.193,11.836,7.819
				c2.467,4.571,8.834,4.953,11.849,0.755c1.698,3.81,2.893,8.649,2.579,9.685c-0.878-0.762-2.01-1.239-3.264-1.239
				c-3.57,0-6.041,3.675-4.566,6.981C32.827,64.184,27,65.494,27,67c0,3.603,21.342,3.129,20.994,4.129
				c-3.661,10.623-9.04,12.077-7.884,14.683C40.432,86.534,41.147,87,41.938,87H55h13.062c0.79,0,1.506-0.466,1.828-1.188
				c1.176-2.647-4.181-3.935-7.885-14.683C61.658,70.129,83,70.603,83,67c0-1.506-5.827-2.816-14.434-3.499
				C70.041,60.194,67.57,56.52,64,56.52c-1.254,0-2.386,0.478-3.264,1.239c-0.305-1.002,0.82-5.738,2.579-9.685
				C66.324,52.265,72.693,51.897,75.164,47.319z"/>
		</g>
		<g>
			<path style="fill:#FFFFFF;" d="M35.964,32.276C30.335,28.791,23,32.829,23,39.5c0,6.128,6.273,10.193,11.836,7.819
				c2.467,4.57,8.834,4.953,11.849,0.755c1.698,3.81,2.893,8.649,2.579,9.685c-0.878-0.762-2.01-1.239-3.264-1.239
				c-3.57,0-6.041,3.675-4.566,6.981C32.827,64.184,27,65.494,27,67c0,3.603,21.342,3.129,20.994,4.129
				c-3.661,10.623-9.04,12.077-7.884,14.683C40.432,86.534,41.147,87,41.938,87H55V23C46.559,23,39.301,26.804,35.964,32.276z"/>
		</g>
	</g>
</g>
<g id="Yellow" style="display:none;">
	<g style="display:inline;">
		<g>
			<path style="fill:#FFF5D9;" d="M75.164,47.319C80.731,49.695,87,45.625,87,39.5c0-6.674-7.339-10.706-12.964-7.224
				C70.699,26.804,63.442,23,55,23s-15.699,3.804-19.036,9.276C30.335,28.791,23,32.83,23,39.5c0,6.129,6.273,10.193,11.836,7.819
				c2.467,4.571,8.834,4.953,11.849,0.755c1.698,3.81,2.894,8.648,2.579,9.685c-0.878-0.762-2.01-1.239-3.264-1.239
				c-3.57,0-6.041,3.675-4.566,6.981C32.827,64.184,27,65.494,27,67c0,3.603,21.342,3.129,20.994,4.129
				c-3.661,10.623-9.04,12.077-7.884,14.683C40.432,86.534,41.148,87,41.938,87H55h13.063c0.79,0,1.506-0.466,1.828-1.188
				c1.176-2.647-4.181-3.935-7.885-14.683C61.658,70.129,83,70.603,83,67c0-1.506-5.827-2.816-14.434-3.499
				c1.475-3.307-0.996-6.981-4.566-6.981c-1.254,0-2.386,0.478-3.264,1.239c-0.305-1.002,0.82-5.738,2.579-9.685
				C66.324,52.265,72.694,51.897,75.164,47.319z"/>
		</g>
		<g>
			<path style="fill:#FFFFFF;" d="M35.964,32.276C30.335,28.791,23,32.829,23,39.5c0,6.128,6.273,10.193,11.836,7.819
				c2.467,4.57,8.834,4.953,11.849,0.755c1.698,3.81,2.894,8.648,2.579,9.685c-0.878-0.762-2.01-1.239-3.264-1.239
				c-3.57,0-6.041,3.675-4.566,6.981C32.827,64.184,27,65.494,27,67c0,3.603,21.342,3.129,20.994,4.129
				c-3.661,10.623-9.04,12.077-7.884,14.683C40.432,86.534,41.148,87,41.938,87H55V23C46.559,23,39.301,26.804,35.964,32.276z"/>
		</g>
	</g>
</g>
<g id="R-Yellow" style="display:none;">
	<circle style="display:inline;fill:#FFD75E;" cx="55" cy="55" r="55"/>
	<g style="display:inline;">
		<g>
			<path style="fill:#FFF5D9;" d="M75.164,47.319C80.73,49.695,87,45.625,87,39.5c0-6.674-7.339-10.706-12.964-7.224
				C70.699,26.804,63.441,23,55,23s-15.699,3.804-19.036,9.276C30.335,28.791,23,32.83,23,39.5c0,6.129,6.273,10.193,11.836,7.819
				c2.467,4.571,8.834,4.953,11.849,0.755c1.698,3.81,2.894,8.648,2.579,9.685c-0.878-0.762-2.01-1.239-3.264-1.239
				c-3.57,0-6.041,3.675-4.566,6.981C32.827,64.184,27,65.494,27,67c0,3.603,21.342,3.129,20.994,4.129
				c-3.661,10.623-9.04,12.077-7.884,14.683C40.432,86.534,41.147,87,41.937,87H55h13.063c0.79,0,1.506-0.466,1.828-1.188
				c1.176-2.647-4.181-3.935-7.885-14.683C61.658,70.129,83,70.603,83,67c0-1.506-5.827-2.816-14.434-3.499
				C70.041,60.194,67.57,56.52,64,56.52c-1.254,0-2.386,0.478-3.264,1.239c-0.305-1.002,0.82-5.738,2.579-9.685
				C66.324,52.265,72.693,51.897,75.164,47.319z"/>
		</g>
		<g>
			<path style="fill:#FFFFFF;" d="M35.964,32.276C30.335,28.791,23,32.829,23,39.5c0,6.128,6.273,10.193,11.836,7.819
				c2.467,4.57,8.834,4.953,11.849,0.755c1.698,3.81,2.894,8.648,2.579,9.685c-0.878-0.762-2.01-1.239-3.264-1.239
				c-3.57,0-6.041,3.675-4.566,6.981C32.827,64.184,27,65.494,27,67c0,3.603,21.342,3.129,20.994,4.129
				c-3.661,10.623-9.04,12.077-7.884,14.683C40.432,86.534,41.147,87,41.937,87H55V23C46.559,23,39.301,26.804,35.964,32.276z"/>
		</g>
	</g>
</g>
</svg>
